External Loads File
version=1
nRows=30
nColumns=13
Range=5.000000e-03-10 seconds
endheader
time 	forceRightX 	forceRightY 	forceRightZ 	pointRightX 	pointRightY 	pointRightZ 	forceLeftX 	forceLeftY 	forceLeftZ 	pointLeftX 	pointLeftY 	pointLeftZ 		
2.505000 89.506134 -145.966090 -0.000000 0.133023 0.275283 -0.116448 -346.932514 758.603077 -0.000000 0.389577 0.385815 -0.364229
2.510000 87.237145 -144.165834 -0.000000 0.131012 0.280703 -0.116553 -344.045566 775.209983 -0.000000 0.391398 0.380457 -0.364392
2.515000 85.422662 -142.358312 -0.000000 0.129150 0.286262 -0.116694 -340.124804 791.416023 -0.000000 0.393216 0.375019 -0.364416
2.520000 84.054695 -140.486736 -0.000000 0.126856 0.291737 -0.117137 -335.666668 807.008117 -0.000000 0.394859 0.369587 -0.364518
2.525000 83.105921 -138.426166 -0.000000 0.125968 0.297355 -0.116749 -331.284478 821.813993 -0.000000 0.396364 0.364061 -0.364556
2.530000 82.228055 -136.272434 -0.000000 0.123966 0.303008 -0.117207 -325.541275 836.546671 -0.000000 0.397763 0.358482 -0.364620
2.535000 81.685068 -133.831798 -0.000000 0.123432 0.308738 -0.116792 -320.376387 850.587296 -0.000000 0.398958 0.352947 -0.364575
2.540000 81.189690 -131.315524 -0.000000 0.122390 0.314514 -0.116766 -314.214450 864.658071 -0.000000 0.400030 0.347319 -0.364492
2.545000 80.823003 -128.775148 -0.000000 0.121441 0.320259 -0.116835 -307.796001 878.535733 -0.000000 0.401025 0.341664 -0.364081
2.550000 80.480690 -126.409279 -0.000000 0.120837 0.326184 -0.116779 -300.684504 892.405285 -0.000000 0.401679 0.336032 -0.364368
2.555000 80.275208 -124.244547 -0.000000 0.120362 0.332084 -0.116733 -293.859743 905.940938 -0.000000 0.402321 0.330601 -0.364248
2.560000 79.850108 -122.532628 -0.000000 0.120037 0.337999 -0.116749 -284.767954 919.910487 -0.000000 0.402789 0.324633 -0.364154
2.565000 79.452179 -121.069848 -0.000000 0.119974 0.344020 -0.116636 -275.245845 933.610542 -0.000000 0.403082 0.318831 -0.364033
2.570000 79.024786 -119.786024 -0.000000 0.120093 0.350035 -0.116625 -265.257693 947.004662 -0.000000 0.403304 0.313071 -0.363875
2.575000 78.511725 -118.544616 -0.000000 0.120383 0.356010 -0.116621 -255.139029 960.018682 -0.000000 0.403191 0.307419 -0.363778
2.580000 77.716758 -117.283151 -0.000000 0.121035 0.362016 -0.116574 -244.296559 972.890868 -0.000000 0.402951 0.301724 -0.363619
2.585000 76.603308 -115.895243 -0.000000 0.121703 0.367998 -0.116626 -233.443606 985.553158 -0.000000 0.402601 0.296011 -0.363376
2.590000 75.100971 -114.377575 -0.000000 0.122728 0.374009 -0.116620 -222.869198 998.055530 -0.000000 0.402005 0.290488 -0.363268
2.595000 73.127730 -112.784539 -0.000000 0.123886 0.379887 -0.116718 -212.419317 1010.486844 -0.000000 0.401214 0.284877 -0.363457
2.600000 70.528778 -111.258921 -0.000000 0.125441 0.386039 -0.116478 -200.834489 1023.060000 -0.000000 0.400312 0.279247 -0.362857
2.605000 67.591142 -109.703470 -0.000000 0.127044 0.391903 -0.116723 -190.436776 1035.186418 -0.000000 0.399286 0.273630 -0.362656
2.610000 64.264064 -108.256521 -0.000000 0.128861 0.397870 -0.116966 -180.145679 1046.896537 -0.000000 0.398266 0.268067 -0.362142
2.615000 60.649867 -106.951165 -0.000000 0.130948 0.403705 -0.117073 -170.297698 1057.856422 -0.000000 0.396950 0.262574 -0.361996
2.620000 56.685957 -105.892309 -0.000000 0.133305 0.409661 -0.117129 -160.030032 1067.879606 -0.000000 0.395498 0.257049 -0.361869
2.625000 52.489683 -105.048550 -0.000000 0.135955 0.415404 -0.117168 -150.622228 1076.413402 -0.000000 0.393900 0.251632 -0.361720
2.630000 47.995217 -104.465251 -0.000000 0.138608 0.421083 -0.117414 -141.573701 1083.122051 -0.000000 0.392147 0.246251 -0.361682
2.635000 43.048628 -104.226242 -0.000000 0.141688 0.426684 -0.117450 -131.564769 1087.698092 -0.000000 0.390123 0.240937 -0.361690
2.640000 37.689568 -104.337997 -0.000000 0.144874 0.432214 -0.117650 -121.580474 1089.545007 -0.000000 0.388133 0.235724 -0.361658
2.645000 32.022388 -104.804339 -0.000000 0.147730 0.437669 -0.118156 -113.356050 1088.054381 -0.000000 0.386227 0.230920 -0.361305
2.650000 25.478412 -105.834175 -0.000000 0.151358 0.442812 -0.118280 -101.541842 1083.372728 -0.000000 0.383968 0.225587 -0.361243
